# xmcd
#
# Track frame offsets: 
#        150
#        14936
#        34579
#        57732
#        77475
#        92381
#        110957
#        135504
#        155177
#        173158
#        194666
#
# Disc length: 2884 seconds
#
# Revision: 0
# Processed by: cddbd v1.5.2PL0 Copyright (c) Steve Scherf et al.
# Submitted via: ExactAudioCopy v1.0b4
#
DISCID=9b0b420b
DTITLE=Chris Beard - Eye Of The Witch
DYEAR=2015
DGENRE=Blues
TTITLE0=Let The Chips Fall
TTITLE1=Eye Of The Witch
TTITLE2=House Of Shame
TTITLE3=One More Cry For Love
TTITLE4=Older Fool
TTITLE5=Crime Of The Century
TTITLE6=Glad You're Gone
TTITLE7=Good Thing's About To Run Out
TTITLE8=Love Comes Knocking
TTITLE9=I'm Free
TTITLE10=Keeps Me Believing
EXTD=
EXTT0=
EXTT1=
EXTT2=
EXTT3=
EXTT4=
EXTT5=
EXTT6=
EXTT7=
EXTT8=
EXTT9=
EXTT10=
PLAYORDER=
